{
    "asset" : {
        "generator" : "Khronos glTF Blender I/O v1.8.19",
        "version" : "2.0"
    },
    "scene" : 0,
    "scenes" : [
        {
            "name" : "Scene",
            "nodes" : [
                0
            ]
        }
    ],
    "nodes" : [
        {
            "mesh" : 0,
            "name" : "Ch31_Sweater_\u7f51\u683c.047"
        }
    ],
    "materials" : [
        {
            "doubleSided" : true,
            "name" : "20_-_Default.001",
            "pbrMetallicRoughness" : {
                "baseColorTexture" : {
                    "index" : 0
                },
                "metallicFactor" : 0,
                "roughnessFactor" : 0.858578622341156
            }
        }
    ],
    "meshes" : [
        {
            "name" : "Ch31_Sweater_\u7f51\u683c.047",
            "primitives" : [
                {
                    "attributes" : {
                        "POSITION" : 0,
                        "NORMAL" : 1,
                        "TEXCOORD_0" : 2
                    },
                    "indices" : 3,
                    "material" : 0
                }
            ]
        }
    ],
    "textures" : [
        {
            "sampler" : 0,
            "source" : 0
        }
    ],
    "images" : [
        {
            "mimeType" : "image/png",
            "name" : "huise",
            "uri" : "huise.png"
        }
    ],
    "accessors" : [
        {
            "bufferView" : 0,
            "componentType" : 5126,
            "count" : 22958,
            "max" : [
                0.18106499314308167,
                0.8970080018043518,
                1.7692949771881104
            ],
            "min" : [
                -0.1554879993200302,
                -0.8812659978866577,
                -0.017640000209212303
            ],
            "type" : "VEC3"
        },
        {
            "bufferView" : 1,
            "componentType" : 5126,
            "count" : 22958,
            "type" : "VEC3"
        },
        {
            "bufferView" : 2,
            "componentType" : 5126,
            "count" : 22958,
            "type" : "VEC2"
        },
        {
            "bufferView" : 3,
            "componentType" : 5123,
            "count" : 97245,
            "type" : "SCALAR"
        }
    ],
    "bufferViews" : [
        {
            "buffer" : 0,
            "byteLength" : 275496,
            "byteOffset" : 0
        },
        {
            "buffer" : 0,
            "byteLength" : 275496,
            "byteOffset" : 275496
        },
        {
            "buffer" : 0,
            "byteLength" : 183664,
            "byteOffset" : 550992
        },
        {
            "buffer" : 0,
            "byteLength" : 194490,
            "byteOffset" : 734656
        }
    ],
    "samplers" : [
        {
            "magFilter" : 9729,
            "minFilter" : 9987
        }
    ],
    "buffers" : [
        {
            "byteLength" : 929148,
            "uri" : "men131.bin"
        }
    ]
}
