{
    "asset" : {
        "generator" : "Khronos glTF Blender I/O v1.8.19",
        "version" : "2.0"
    },
    "extensionsUsed" : [
        "KHR_texture_transform"
    ],
    "extensionsRequired" : [
        "KHR_texture_transform"
    ],
    "scene" : 0,
    "scenes" : [
        {
            "name" : "Scene",
            "nodes" : [
                0,
                1,
                2,
                3,
                4,
                5,
                6,
                7,
                8,
                9,
                10,
                11,
                12,
                13,
                14,
                15,
                16,
                17,
                18
            ]
        }
    ],
    "nodes" : [
        {
            "mesh" : 0,
            "name" : "jinguang_deng"
        },
        {
            "mesh" : 1,
            "name" : "yuanguang_deng"
        },
        {
            "mesh" : 2,
            "name" : "cheqi"
        },
        {
            "mesh" : 3,
            "name" : "chepai"
        },
        {
            "mesh" : 4,
            "name" : "boli"
        },
        {
            "mesh" : 5,
            "name" : "hocheboli"
        },
        {
            "mesh" : 6,
            "name" : "fanguangj"
        },
        {
            "mesh" : 7,
            "name" : "chedi"
        },
        {
            "mesh" : 8,
            "name" : "neishi"
        },
        {
            "mesh" : 9,
            "name" : "cheheiqi"
        },
        {
            "mesh" : 10,
            "name" : "che_luntai"
        },
        {
            "mesh" : 11,
            "name" : "chemen_heibian"
        },
        {
            "mesh" : 12,
            "name" : "chetai_neice"
        },
        {
            "mesh" : 13,
            "name" : "cheyse"
        },
        {
            "mesh" : 14,
            "name" : "tianchung"
        },
        {
            "mesh" : 15,
            "name" : "faguanglogo"
        },
        {
            "mesh" : 16,
            "name" : "cheweihongdeng"
        },
        {
            "mesh" : 17,
            "name" : "zhuangxiangdeng"
        },
        {
            "mesh" : 18,
            "name" : "shachepan"
        }
    ],
    "materials" : [
        {
            "doubleSided" : true,
            "name" : "jinguang-deng.001",
            "pbrMetallicRoughness" : {
                "baseColorTexture" : {
                    "extensions" : {
                        "KHR_texture_transform" : {
                            "offset" : [
                                0,
                                -1
                            ]
                        }
                    },
                    "index" : 0
                },
                "metallicFactor" : 0,
                "roughnessFactor" : 0.5527864098548889
            }
        },
        {
            "doubleSided" : true,
            "name" : "yuanguang-deng.001",
            "pbrMetallicRoughness" : {
                "baseColorTexture" : {
                    "extensions" : {
                        "KHR_texture_transform" : {
                            "offset" : [
                                0,
                                -1
                            ]
                        }
                    },
                    "index" : 1
                },
                "metallicFactor" : 0,
                "roughnessFactor" : 0.5527864098548889
            }
        },
        {
            "name" : "\u8f66\u6f06.001",
            "pbrMetallicRoughness" : {
                "baseColorTexture" : {
                    "extensions" : {
                        "KHR_texture_transform" : {
                            "offset" : [
                                0,
                                -1
                            ]
                        }
                    },
                    "index" : 2
                },
                "metallicFactor" : 0,
                "roughnessFactor" : 0.5527864098548889
            }
        },
        {
            "doubleSided" : true,
            "name" : "\u8f66\u724c.001",
            "pbrMetallicRoughness" : {
                "baseColorTexture" : {
                    "extensions" : {
                        "KHR_texture_transform" : {
                            "offset" : [
                                0,
                                -1
                            ]
                        }
                    },
                    "index" : 3
                },
                "metallicFactor" : 0,
                "roughnessFactor" : 0.5527864098548889
            }
        },
        {
            "alphaMode" : "BLEND",
            "name" : "\u73bb\u7483.001",
            "pbrMetallicRoughness" : {
                "baseColorTexture" : {
                    "extensions" : {
                        "KHR_texture_transform" : {
                            "offset" : [
                                0,
                                -1
                            ]
                        }
                    },
                    "index" : 4
                },
                "metallicFactor" : 0,
                "roughnessFactor" : 0.5527864098548889
            }
        },
        {
            "name" : "\u53cd\u5149\u955c.001",
            "pbrMetallicRoughness" : {
                "baseColorTexture" : {
                    "extensions" : {
                        "KHR_texture_transform" : {
                            "offset" : [
                                0,
                                -1
                            ]
                        }
                    },
                    "index" : 5
                },
                "metallicFactor" : 0,
                "roughnessFactor" : 0.5527864098548889
            }
        },
        {
            "doubleSided" : true,
            "name" : "\u8f66\u5e95\u76d8.001",
            "pbrMetallicRoughness" : {
                "baseColorTexture" : {
                    "extensions" : {
                        "KHR_texture_transform" : {
                            "offset" : [
                                0,
                                -1
                            ]
                        }
                    },
                    "index" : 6
                },
                "metallicFactor" : 0,
                "roughnessFactor" : 0.5527864098548889
            }
        },
        {
            "doubleSided" : true,
            "name" : "\u8f66\u5185\u9970.001",
            "pbrMetallicRoughness" : {
                "baseColorTexture" : {
                    "extensions" : {
                        "KHR_texture_transform" : {
                            "offset" : [
                                0,
                                -1
                            ]
                        }
                    },
                    "index" : 7
                },
                "metallicFactor" : 0,
                "roughnessFactor" : 0.5527864098548889
            }
        },
        {
            "name" : "\u8f66-\u9ed1\u6f06.001",
            "pbrMetallicRoughness" : {
                "baseColorTexture" : {
                    "extensions" : {
                        "KHR_texture_transform" : {
                            "offset" : [
                                0,
                                -1
                            ]
                        }
                    },
                    "index" : 8
                },
                "metallicFactor" : 0,
                "roughnessFactor" : 0.5527864098548889
            }
        },
        {
            "doubleSided" : true,
            "name" : "che-luntai",
            "pbrMetallicRoughness" : {
                "baseColorTexture" : {
                    "extensions" : {
                        "KHR_texture_transform" : {
                            "offset" : [
                                0,
                                -1
                            ]
                        }
                    },
                    "index" : 9
                },
                "metallicFactor" : 0,
                "roughnessFactor" : 0.5527864098548889
            }
        },
        {
            "doubleSided" : true,
            "name" : "chemen-heibian.001",
            "pbrMetallicRoughness" : {
                "baseColorTexture" : {
                    "extensions" : {
                        "KHR_texture_transform" : {
                            "offset" : [
                                0,
                                -1
                            ]
                        }
                    },
                    "index" : 10
                },
                "metallicFactor" : 0,
                "roughnessFactor" : 0.5527864098548889
            }
        },
        {
            "doubleSided" : true,
            "name" : "chetai-neice.001",
            "pbrMetallicRoughness" : {
                "baseColorTexture" : {
                    "extensions" : {
                        "KHR_texture_transform" : {
                            "offset" : [
                                0,
                                -1
                            ]
                        }
                    },
                    "index" : 11
                },
                "metallicFactor" : 0,
                "roughnessFactor" : 0.5527864098548889
            }
        },
        {
            "name" : "\u8f66-\u94f6\u8272\u9ed1\u6f06.001",
            "pbrMetallicRoughness" : {
                "baseColorTexture" : {
                    "extensions" : {
                        "KHR_texture_transform" : {
                            "offset" : [
                                0,
                                -1
                            ]
                        }
                    },
                    "index" : 12
                },
                "metallicFactor" : 0,
                "roughnessFactor" : 0.5527864098548889
            }
        },
        {
            "alphaMode" : "BLEND",
            "name" : "\u5929\u7a97-\u9ed1\u73bb\u7483.001",
            "pbrMetallicRoughness" : {
                "baseColorTexture" : {
                    "extensions" : {
                        "KHR_texture_transform" : {
                            "offset" : [
                                0,
                                -1
                            ]
                        }
                    },
                    "index" : 13
                },
                "metallicFactor" : 0,
                "roughnessFactor" : 0.5527864098548889
            }
        },
        {
            "doubleSided" : true,
            "name" : "\u53d1\u5149logo.001",
            "pbrMetallicRoughness" : {
                "baseColorTexture" : {
                    "extensions" : {
                        "KHR_texture_transform" : {
                            "offset" : [
                                0,
                                -1
                            ]
                        }
                    },
                    "index" : 14
                },
                "metallicFactor" : 0,
                "roughnessFactor" : 0.5527864098548889
            }
        },
        {
            "doubleSided" : true,
            "name" : "\u8f66\u5c3e\u706f-\u7ea2\u5149.001",
            "pbrMetallicRoughness" : {
                "baseColorTexture" : {
                    "extensions" : {
                        "KHR_texture_transform" : {
                            "offset" : [
                                0,
                                -1
                            ]
                        }
                    },
                    "index" : 15
                },
                "metallicFactor" : 0,
                "roughnessFactor" : 0.5527864098548889
            }
        },
        {
            "doubleSided" : true,
            "name" : "\u8f6c\u5411\u706f.001",
            "pbrMetallicRoughness" : {
                "baseColorTexture" : {
                    "extensions" : {
                        "KHR_texture_transform" : {
                            "offset" : [
                                0,
                                -1
                            ]
                        }
                    },
                    "index" : 16
                },
                "metallicFactor" : 0,
                "roughnessFactor" : 0.5527864098548889
            }
        },
        {
            "doubleSided" : true,
            "name" : "\u5239\u8f66\u76d8.001",
            "pbrMetallicRoughness" : {
                "baseColorTexture" : {
                    "extensions" : {
                        "KHR_texture_transform" : {
                            "offset" : [
                                0,
                                -1
                            ]
                        }
                    },
                    "index" : 17
                },
                "metallicFactor" : 0,
                "roughnessFactor" : 0.5527864098548889
            }
        }
    ],
    "meshes" : [
        {
            "name" : "\u7f51\u683c.018",
            "primitives" : [
                {
                    "attributes" : {
                        "POSITION" : 0,
                        "NORMAL" : 1,
                        "TEXCOORD_0" : 2
                    },
                    "indices" : 3,
                    "material" : 0
                }
            ]
        },
        {
            "name" : "\u7f51\u683c.019",
            "primitives" : [
                {
                    "attributes" : {
                        "POSITION" : 4,
                        "NORMAL" : 5,
                        "TEXCOORD_0" : 6
                    },
                    "indices" : 7,
                    "material" : 1
                }
            ]
        },
        {
            "name" : "\u7f51\u683c.020",
            "primitives" : [
                {
                    "attributes" : {
                        "POSITION" : 8,
                        "NORMAL" : 9,
                        "TEXCOORD_0" : 10
                    },
                    "indices" : 11,
                    "material" : 2
                }
            ]
        },
        {
            "name" : "\u7f51\u683c.021",
            "primitives" : [
                {
                    "attributes" : {
                        "POSITION" : 12,
                        "NORMAL" : 13,
                        "TEXCOORD_0" : 14
                    },
                    "indices" : 15,
                    "material" : 3
                }
            ]
        },
        {
            "name" : "\u7f51\u683c.022",
            "primitives" : [
                {
                    "attributes" : {
                        "POSITION" : 16,
                        "NORMAL" : 17,
                        "TEXCOORD_0" : 18
                    },
                    "indices" : 19,
                    "material" : 4
                }
            ]
        },
        {
            "name" : "\u7f51\u683c.023",
            "primitives" : [
                {
                    "attributes" : {
                        "POSITION" : 20,
                        "NORMAL" : 21,
                        "TEXCOORD_0" : 22
                    },
                    "indices" : 23,
                    "material" : 4
                }
            ]
        },
        {
            "name" : "\u7f51\u683c.024",
            "primitives" : [
                {
                    "attributes" : {
                        "POSITION" : 24,
                        "NORMAL" : 25,
                        "TEXCOORD_0" : 26
                    },
                    "indices" : 27,
                    "material" : 5
                }
            ]
        },
        {
            "name" : "\u7f51\u683c.025",
            "primitives" : [
                {
                    "attributes" : {
                        "POSITION" : 28,
                        "NORMAL" : 29,
                        "TEXCOORD_0" : 30
                    },
                    "indices" : 31,
                    "material" : 6
                }
            ]
        },
        {
            "name" : "\u7f51\u683c.026",
            "primitives" : [
                {
                    "attributes" : {
                        "POSITION" : 32,
                        "NORMAL" : 33,
                        "TEXCOORD_0" : 34
                    },
                    "indices" : 35,
                    "material" : 7
                }
            ]
        },
        {
            "name" : "\u7f51\u683c.027",
            "primitives" : [
                {
                    "attributes" : {
                        "POSITION" : 36,
                        "NORMAL" : 37,
                        "TEXCOORD_0" : 38
                    },
                    "indices" : 39,
                    "material" : 8
                }
            ]
        },
        {
            "name" : "\u7f51\u683c.028",
            "primitives" : [
                {
                    "attributes" : {
                        "POSITION" : 40,
                        "NORMAL" : 41,
                        "TEXCOORD_0" : 42
                    },
                    "indices" : 43,
                    "material" : 9
                }
            ]
        },
        {
            "name" : "\u7f51\u683c.029",
            "primitives" : [
                {
                    "attributes" : {
                        "POSITION" : 44,
                        "NORMAL" : 45,
                        "TEXCOORD_0" : 46
                    },
                    "indices" : 47,
                    "material" : 10
                }
            ]
        },
        {
            "name" : "\u7f51\u683c.030",
            "primitives" : [
                {
                    "attributes" : {
                        "POSITION" : 48,
                        "NORMAL" : 49,
                        "TEXCOORD_0" : 50
                    },
                    "indices" : 51,
                    "material" : 11
                }
            ]
        },
        {
            "name" : "\u7f51\u683c.031",
            "primitives" : [
                {
                    "attributes" : {
                        "POSITION" : 52,
                        "NORMAL" : 53,
                        "TEXCOORD_0" : 54
                    },
                    "indices" : 55,
                    "material" : 12
                }
            ]
        },
        {
            "name" : "\u7f51\u683c.032",
            "primitives" : [
                {
                    "attributes" : {
                        "POSITION" : 56,
                        "NORMAL" : 57,
                        "TEXCOORD_0" : 58
                    },
                    "indices" : 59,
                    "material" : 13
                }
            ]
        },
        {
            "name" : "\u7f51\u683c.033",
            "primitives" : [
                {
                    "attributes" : {
                        "POSITION" : 60,
                        "NORMAL" : 61,
                        "TEXCOORD_0" : 62
                    },
                    "indices" : 63,
                    "material" : 14
                }
            ]
        },
        {
            "name" : "\u7f51\u683c.034",
            "primitives" : [
                {
                    "attributes" : {
                        "POSITION" : 64,
                        "NORMAL" : 65,
                        "TEXCOORD_0" : 66
                    },
                    "indices" : 67,
                    "material" : 15
                }
            ]
        },
        {
            "name" : "\u7f51\u683c.035",
            "primitives" : [
                {
                    "attributes" : {
                        "POSITION" : 68,
                        "NORMAL" : 69,
                        "TEXCOORD_0" : 70
                    },
                    "indices" : 71,
                    "material" : 16
                }
            ]
        },
        {
            "name" : "\u7f51\u683c.036",
            "primitives" : [
                {
                    "attributes" : {
                        "POSITION" : 72,
                        "NORMAL" : 73,
                        "TEXCOORD_0" : 74
                    },
                    "indices" : 75,
                    "material" : 17
                }
            ]
        }
    ],
    "textures" : [
        {
            "sampler" : 0,
            "source" : 0
        },
        {
            "sampler" : 0,
            "source" : 0
        },
        {
            "sampler" : 0,
            "source" : 0
        },
        {
            "sampler" : 0,
            "source" : 0
        },
        {
            "sampler" : 0,
            "source" : 0
        },
        {
            "sampler" : 0,
            "source" : 0
        },
        {
            "sampler" : 0,
            "source" : 0
        },
        {
            "sampler" : 0,
            "source" : 0
        },
        {
            "sampler" : 0,
            "source" : 0
        },
        {
            "sampler" : 0,
            "source" : 0
        },
        {
            "sampler" : 0,
            "source" : 0
        },
        {
            "sampler" : 0,
            "source" : 0
        },
        {
            "sampler" : 0,
            "source" : 0
        },
        {
            "sampler" : 0,
            "source" : 0
        },
        {
            "sampler" : 0,
            "source" : 0
        },
        {
            "sampler" : 0,
            "source" : 0
        },
        {
            "sampler" : 0,
            "source" : 0
        },
        {
            "sampler" : 0,
            "source" : 0
        }
    ],
    "images" : [
        {
            "mimeType" : "image/png",
            "name" : "UV05",
            "uri" : "UV05.png"
        }
    ],
    "accessors" : [
        {
            "bufferView" : 0,
            "componentType" : 5126,
            "count" : 72,
            "max" : [
                3.7348666191101074,
                0.7965570688247681,
                0.696648895740509
            ],
            "min" : [
                3.58302640914917,
                -0.798119068145752,
                0.6552616357803345
            ],
            "type" : "VEC3"
        },
        {
            "bufferView" : 1,
            "componentType" : 5126,
            "count" : 72,
            "type" : "VEC3"
        },
        {
            "bufferView" : 2,
            "componentType" : 5126,
            "count" : 72,
            "type" : "VEC2"
        },
        {
            "bufferView" : 3,
            "componentType" : 5123,
            "count" : 192,
            "type" : "SCALAR"
        },
        {
            "bufferView" : 4,
            "componentType" : 5126,
            "count" : 196,
            "max" : [
                3.611300468444824,
                0.8330970406532288,
                0.9980294108390808
            ],
            "min" : [
                3.1930134296417236,
                -0.8346592783927917,
                0.8310920000076294
            ],
            "type" : "VEC3"
        },
        {
            "bufferView" : 5,
            "componentType" : 5126,
            "count" : 196,
            "type" : "VEC3"
        },
        {
            "bufferView" : 6,
            "componentType" : 5126,
            "count" : 196,
            "type" : "VEC2"
        },
        {
            "bufferView" : 7,
            "componentType" : 5123,
            "count" : 498,
            "type" : "SCALAR"
        },
        {
            "bufferView" : 8,
            "componentType" : 5126,
            "count" : 25130,
            "max" : [
                3.918844223022461,
                1.1283460855484009,
                1.5389431715011597
            ],
            "min" : [
                -1.0494641065597534,
                -1.1299078464508057,
                0.2079821079969406
            ],
            "type" : "VEC3"
        },
        {
            "bufferView" : 9,
            "componentType" : 5126,
            "count" : 25130,
            "type" : "VEC3"
        },
        {
            "bufferView" : 10,
            "componentType" : 5126,
            "count" : 25130,
            "type" : "VEC2"
        },
        {
            "bufferView" : 11,
            "componentType" : 5123,
            "count" : 88560,
            "type" : "SCALAR"
        },
        {
            "bufferView" : 12,
            "componentType" : 5126,
            "count" : 1598,
            "max" : [
                3.91137433052063,
                0.2199869155883789,
                0.6629865169525146
            ],
            "min" : [
                -1.0129635334014893,
                -0.22510699927806854,
                0.44149744510650635
            ],
            "type" : "VEC3"
        },
        {
            "bufferView" : 13,
            "componentType" : 5126,
            "count" : 1598,
            "type" : "VEC3"
        },
        {
            "bufferView" : 14,
            "componentType" : 5126,
            "count" : 1598,
            "type" : "VEC2"
        },
        {
            "bufferView" : 15,
            "componentType" : 5123,
            "count" : 4737,
            "type" : "SCALAR"
        },
        {
            "bufferView" : 16,
            "componentType" : 5126,
            "count" : 3274,
            "max" : [
                3.825601100921631,
                0.8764774799346924,
                1.4706684350967407
            ],
            "min" : [
                -1.0016762018203735,
                -0.878038227558136,
                0.5024041533470154
            ],
            "type" : "VEC3"
        },
        {
            "bufferView" : 17,
            "componentType" : 5126,
            "count" : 3274,
            "type" : "VEC3"
        },
        {
            "bufferView" : 18,
            "componentType" : 5126,
            "count" : 3274,
            "type" : "VEC2"
        },
        {
            "bufferView" : 19,
            "componentType" : 5123,
            "count" : 10404,
            "type" : "SCALAR"
        },
        {
            "bufferView" : 20,
            "componentType" : 5126,
            "count" : 219,
            "max" : [
                -0.060012511909008026,
                0.6582763195037842,
                1.4234522581100464
            ],
            "min" : [
                -0.8329854011535645,
                -0.6593335866928101,
                1.180946946144104
            ],
            "type" : "VEC3"
        },
        {
            "bufferView" : 21,
            "componentType" : 5126,
            "count" : 219,
            "type" : "VEC3"
        },
        {
            "bufferView" : 22,
            "componentType" : 5126,
            "count" : 219,
            "type" : "VEC2"
        },
        {
            "bufferView" : 23,
            "componentType" : 5123,
            "count" : 1125,
            "type" : "SCALAR"
        },
        {
            "bufferView" : 24,
            "componentType" : 5126,
            "count" : 24,
            "max" : [
                2.154757022857666,
                1.108985185623169,
                1.1975020170211792
            ],
            "min" : [
                2.0817906856536865,
                -1.110546588897705,
                1.0622154474258423
            ],
            "type" : "VEC3"
        },
        {
            "bufferView" : 25,
            "componentType" : 5126,
            "count" : 24,
            "type" : "VEC3"
        },
        {
            "bufferView" : 26,
            "componentType" : 5126,
            "count" : 24,
            "type" : "VEC2"
        },
        {
            "bufferView" : 27,
            "componentType" : 5123,
            "count" : 66,
            "type" : "SCALAR"
        },
        {
            "bufferView" : 28,
            "componentType" : 5126,
            "count" : 597,
            "max" : [
                3.88041615486145,
                0.9889693260192871,
                1.4607487916946411
            ],
            "min" : [
                -0.785141110420227,
                -0.9871883988380432,
                0.20730729401111603
            ],
            "type" : "VEC3"
        },
        {
            "bufferView" : 29,
            "componentType" : 5126,
            "count" : 597,
            "type" : "VEC3"
        },
        {
            "bufferView" : 30,
            "componentType" : 5126,
            "count" : 597,
            "type" : "VEC2"
        },
        {
            "bufferView" : 31,
            "componentType" : 5123,
            "count" : 1275,
            "type" : "SCALAR"
        },
        {
            "bufferView" : 32,
            "componentType" : 5126,
            "count" : 21402,
            "max" : [
                2.6708920001983643,
                0.9808844923973083,
                1.5421512126922607
            ],
            "min" : [
                -0.9723200798034668,
                -0.982445478439331,
                0.26666563749313354
            ],
            "type" : "VEC3"
        },
        {
            "bufferView" : 33,
            "componentType" : 5126,
            "count" : 21402,
            "type" : "VEC3"
        },
        {
            "bufferView" : 34,
            "componentType" : 5126,
            "count" : 21402,
            "type" : "VEC2"
        },
        {
            "bufferView" : 35,
            "componentType" : 5123,
            "count" : 74958,
            "type" : "SCALAR"
        },
        {
            "bufferView" : 36,
            "componentType" : 5126,
            "count" : 30286,
            "max" : [
                3.8941590785980225,
                1.1265487670898438,
                1.576712965965271
            ],
            "min" : [
                -1.045718789100647,
                -1.1281105279922485,
                0.06132978945970535
            ],
            "type" : "VEC3"
        },
        {
            "bufferView" : 37,
            "componentType" : 5126,
            "count" : 30286,
            "type" : "VEC3"
        },
        {
            "bufferView" : 38,
            "componentType" : 5126,
            "count" : 30286,
            "type" : "VEC2"
        },
        {
            "bufferView" : 39,
            "componentType" : 5123,
            "count" : 78561,
            "type" : "SCALAR"
        },
        {
            "bufferView" : 40,
            "componentType" : 5126,
            "count" : 36817,
            "max" : [
                3.406452178955078,
                0.9957989454269409,
                0.8200141191482544
            ],
            "min" : [
                -0.40817299485206604,
                -0.997929036617279,
                0.0005839827936142683
            ],
            "type" : "VEC3"
        },
        {
            "bufferView" : 41,
            "componentType" : 5126,
            "count" : 36817,
            "type" : "VEC3"
        },
        {
            "bufferView" : 42,
            "componentType" : 5126,
            "count" : 36817,
            "type" : "VEC2"
        },
        {
            "bufferView" : 43,
            "componentType" : 5123,
            "count" : 83739,
            "type" : "SCALAR"
        },
        {
            "bufferView" : 44,
            "componentType" : 5126,
            "count" : 1304,
            "max" : [
                2.41333270072937,
                0.8653693795204163,
                1.4800727367401123
            ],
            "min" : [
                -0.005288398824632168,
                -0.8669309616088867,
                1.0485771894454956
            ],
            "type" : "VEC3"
        },
        {
            "bufferView" : 45,
            "componentType" : 5126,
            "count" : 1304,
            "type" : "VEC3"
        },
        {
            "bufferView" : 46,
            "componentType" : 5126,
            "count" : 1304,
            "type" : "VEC2"
        },
        {
            "bufferView" : 47,
            "componentType" : 5123,
            "count" : 3591,
            "type" : "SCALAR"
        },
        {
            "bufferView" : 48,
            "componentType" : 5126,
            "count" : 352,
            "max" : [
                3.3096840381622314,
                0.9907131791114807,
                0.7128304243087769
            ],
            "min" : [
                -0.30980250239372253,
                -0.9928432106971741,
                0.08853886276483536
            ],
            "type" : "VEC3"
        },
        {
            "bufferView" : 49,
            "componentType" : 5126,
            "count" : 352,
            "type" : "VEC3"
        },
        {
            "bufferView" : 50,
            "componentType" : 5126,
            "count" : 352,
            "type" : "VEC2"
        },
        {
            "bufferView" : 51,
            "componentType" : 5123,
            "count" : 960,
            "type" : "SCALAR"
        },
        {
            "bufferView" : 52,
            "componentType" : 5126,
            "count" : 2009,
            "max" : [
                3.315443277359009,
                0.9986369609832764,
                0.7132360935211182
            ],
            "min" : [
                -1.028679370880127,
                -1.000907301902771,
                0.08605354279279709
            ],
            "type" : "VEC3"
        },
        {
            "bufferView" : 53,
            "componentType" : 5126,
            "count" : 2009,
            "type" : "VEC3"
        },
        {
            "bufferView" : 54,
            "componentType" : 5126,
            "count" : 2009,
            "type" : "VEC2"
        },
        {
            "bufferView" : 55,
            "componentType" : 5123,
            "count" : 5532,
            "type" : "SCALAR"
        },
        {
            "bufferView" : 56,
            "componentType" : 5126,
            "count" : 435,
            "max" : [
                1.8816479444503784,
                0.7961453795433044,
                1.5612956285476685
            ],
            "min" : [
                0.013522587716579437,
                -0.7977062463760376,
                1.14096999168396
            ],
            "type" : "VEC3"
        },
        {
            "bufferView" : 57,
            "componentType" : 5126,
            "count" : 435,
            "type" : "VEC3"
        },
        {
            "bufferView" : 58,
            "componentType" : 5126,
            "count" : 435,
            "type" : "VEC2"
        },
        {
            "bufferView" : 59,
            "componentType" : 5123,
            "count" : 2220,
            "type" : "SCALAR"
        },
        {
            "bufferView" : 60,
            "componentType" : 5126,
            "count" : 326,
            "max" : [
                -0.9747831225395203,
                0.10587561875581741,
                1.0733206272125244
            ],
            "min" : [
                -0.985871434211731,
                -0.10825488716363907,
                1.0479130744934082
            ],
            "type" : "VEC3"
        },
        {
            "bufferView" : 61,
            "componentType" : 5126,
            "count" : 326,
            "type" : "VEC3"
        },
        {
            "bufferView" : 62,
            "componentType" : 5126,
            "count" : 326,
            "type" : "VEC2"
        },
        {
            "bufferView" : 63,
            "componentType" : 5123,
            "count" : 660,
            "type" : "SCALAR"
        },
        {
            "bufferView" : 64,
            "componentType" : 5126,
            "count" : 2736,
            "max" : [
                -0.3335363268852234,
                0.84055095911026,
                1.1107752323150635
            ],
            "min" : [
                -0.9781440496444702,
                -0.8421117663383484,
                0.9521327614784241
            ],
            "type" : "VEC3"
        },
        {
            "bufferView" : 65,
            "componentType" : 5126,
            "count" : 2736,
            "type" : "VEC3"
        },
        {
            "bufferView" : 66,
            "componentType" : 5126,
            "count" : 2736,
            "type" : "VEC2"
        },
        {
            "bufferView" : 67,
            "componentType" : 5123,
            "count" : 5808,
            "type" : "SCALAR"
        },
        {
            "bufferView" : 68,
            "componentType" : 5126,
            "count" : 159,
            "max" : [
                2.6229543685913086,
                1.1299258470535278,
                1.1355923414230347
            ],
            "min" : [
                2.074188709259033,
                -1.1314873695373535,
                0.7164424061775208
            ],
            "type" : "VEC3"
        },
        {
            "bufferView" : 69,
            "componentType" : 5126,
            "count" : 159,
            "type" : "VEC3"
        },
        {
            "bufferView" : 70,
            "componentType" : 5126,
            "count" : 159,
            "type" : "VEC2"
        },
        {
            "bufferView" : 71,
            "componentType" : 5123,
            "count" : 417,
            "type" : "SCALAR"
        },
        {
            "bufferView" : 72,
            "componentType" : 5126,
            "count" : 2555,
            "max" : [
                3.258272647857666,
                0.9253442883491516,
                0.6462514996528625
            ],
            "min" : [
                -0.2956225574016571,
                -0.9327801465988159,
                0.14914628863334656
            ],
            "type" : "VEC3"
        },
        {
            "bufferView" : 73,
            "componentType" : 5126,
            "count" : 2555,
            "type" : "VEC3"
        },
        {
            "bufferView" : 74,
            "componentType" : 5126,
            "count" : 2555,
            "type" : "VEC2"
        },
        {
            "bufferView" : 75,
            "componentType" : 5123,
            "count" : 7032,
            "type" : "SCALAR"
        }
    ],
    "bufferViews" : [
        {
            "buffer" : 0,
            "byteLength" : 864,
            "byteOffset" : 0
        },
        {
            "buffer" : 0,
            "byteLength" : 864,
            "byteOffset" : 864
        },
        {
            "buffer" : 0,
            "byteLength" : 576,
            "byteOffset" : 1728
        },
        {
            "buffer" : 0,
            "byteLength" : 384,
            "byteOffset" : 2304
        },
        {
            "buffer" : 0,
            "byteLength" : 2352,
            "byteOffset" : 2688
        },
        {
            "buffer" : 0,
            "byteLength" : 2352,
            "byteOffset" : 5040
        },
        {
            "buffer" : 0,
            "byteLength" : 1568,
            "byteOffset" : 7392
        },
        {
            "buffer" : 0,
            "byteLength" : 996,
            "byteOffset" : 8960
        },
        {
            "buffer" : 0,
            "byteLength" : 301560,
            "byteOffset" : 9956
        },
        {
            "buffer" : 0,
            "byteLength" : 301560,
            "byteOffset" : 311516
        },
        {
            "buffer" : 0,
            "byteLength" : 201040,
            "byteOffset" : 613076
        },
        {
            "buffer" : 0,
            "byteLength" : 177120,
            "byteOffset" : 814116
        },
        {
            "buffer" : 0,
            "byteLength" : 19176,
            "byteOffset" : 991236
        },
        {
            "buffer" : 0,
            "byteLength" : 19176,
            "byteOffset" : 1010412
        },
        {
            "buffer" : 0,
            "byteLength" : 12784,
            "byteOffset" : 1029588
        },
        {
            "buffer" : 0,
            "byteLength" : 9474,
            "byteOffset" : 1042372
        },
        {
            "buffer" : 0,
            "byteLength" : 39288,
            "byteOffset" : 1051848
        },
        {
            "buffer" : 0,
            "byteLength" : 39288,
            "byteOffset" : 1091136
        },
        {
            "buffer" : 0,
            "byteLength" : 26192,
            "byteOffset" : 1130424
        },
        {
            "buffer" : 0,
            "byteLength" : 20808,
            "byteOffset" : 1156616
        },
        {
            "buffer" : 0,
            "byteLength" : 2628,
            "byteOffset" : 1177424
        },
        {
            "buffer" : 0,
            "byteLength" : 2628,
            "byteOffset" : 1180052
        },
        {
            "buffer" : 0,
            "byteLength" : 1752,
            "byteOffset" : 1182680
        },
        {
            "buffer" : 0,
            "byteLength" : 2250,
            "byteOffset" : 1184432
        },
        {
            "buffer" : 0,
            "byteLength" : 288,
            "byteOffset" : 1186684
        },
        {
            "buffer" : 0,
            "byteLength" : 288,
            "byteOffset" : 1186972
        },
        {
            "buffer" : 0,
            "byteLength" : 192,
            "byteOffset" : 1187260
        },
        {
            "buffer" : 0,
            "byteLength" : 132,
            "byteOffset" : 1187452
        },
        {
            "buffer" : 0,
            "byteLength" : 7164,
            "byteOffset" : 1187584
        },
        {
            "buffer" : 0,
            "byteLength" : 7164,
            "byteOffset" : 1194748
        },
        {
            "buffer" : 0,
            "byteLength" : 4776,
            "byteOffset" : 1201912
        },
        {
            "buffer" : 0,
            "byteLength" : 2550,
            "byteOffset" : 1206688
        },
        {
            "buffer" : 0,
            "byteLength" : 256824,
            "byteOffset" : 1209240
        },
        {
            "buffer" : 0,
            "byteLength" : 256824,
            "byteOffset" : 1466064
        },
        {
            "buffer" : 0,
            "byteLength" : 171216,
            "byteOffset" : 1722888
        },
        {
            "buffer" : 0,
            "byteLength" : 149916,
            "byteOffset" : 1894104
        },
        {
            "buffer" : 0,
            "byteLength" : 363432,
            "byteOffset" : 2044020
        },
        {
            "buffer" : 0,
            "byteLength" : 363432,
            "byteOffset" : 2407452
        },
        {
            "buffer" : 0,
            "byteLength" : 242288,
            "byteOffset" : 2770884
        },
        {
            "buffer" : 0,
            "byteLength" : 157122,
            "byteOffset" : 3013172
        },
        {
            "buffer" : 0,
            "byteLength" : 441804,
            "byteOffset" : 3170296
        },
        {
            "buffer" : 0,
            "byteLength" : 441804,
            "byteOffset" : 3612100
        },
        {
            "buffer" : 0,
            "byteLength" : 294536,
            "byteOffset" : 4053904
        },
        {
            "buffer" : 0,
            "byteLength" : 167478,
            "byteOffset" : 4348440
        },
        {
            "buffer" : 0,
            "byteLength" : 15648,
            "byteOffset" : 4515920
        },
        {
            "buffer" : 0,
            "byteLength" : 15648,
            "byteOffset" : 4531568
        },
        {
            "buffer" : 0,
            "byteLength" : 10432,
            "byteOffset" : 4547216
        },
        {
            "buffer" : 0,
            "byteLength" : 7182,
            "byteOffset" : 4557648
        },
        {
            "buffer" : 0,
            "byteLength" : 4224,
            "byteOffset" : 4564832
        },
        {
            "buffer" : 0,
            "byteLength" : 4224,
            "byteOffset" : 4569056
        },
        {
            "buffer" : 0,
            "byteLength" : 2816,
            "byteOffset" : 4573280
        },
        {
            "buffer" : 0,
            "byteLength" : 1920,
            "byteOffset" : 4576096
        },
        {
            "buffer" : 0,
            "byteLength" : 24108,
            "byteOffset" : 4578016
        },
        {
            "buffer" : 0,
            "byteLength" : 24108,
            "byteOffset" : 4602124
        },
        {
            "buffer" : 0,
            "byteLength" : 16072,
            "byteOffset" : 4626232
        },
        {
            "buffer" : 0,
            "byteLength" : 11064,
            "byteOffset" : 4642304
        },
        {
            "buffer" : 0,
            "byteLength" : 5220,
            "byteOffset" : 4653368
        },
        {
            "buffer" : 0,
            "byteLength" : 5220,
            "byteOffset" : 4658588
        },
        {
            "buffer" : 0,
            "byteLength" : 3480,
            "byteOffset" : 4663808
        },
        {
            "buffer" : 0,
            "byteLength" : 4440,
            "byteOffset" : 4667288
        },
        {
            "buffer" : 0,
            "byteLength" : 3912,
            "byteOffset" : 4671728
        },
        {
            "buffer" : 0,
            "byteLength" : 3912,
            "byteOffset" : 4675640
        },
        {
            "buffer" : 0,
            "byteLength" : 2608,
            "byteOffset" : 4679552
        },
        {
            "buffer" : 0,
            "byteLength" : 1320,
            "byteOffset" : 4682160
        },
        {
            "buffer" : 0,
            "byteLength" : 32832,
            "byteOffset" : 4683480
        },
        {
            "buffer" : 0,
            "byteLength" : 32832,
            "byteOffset" : 4716312
        },
        {
            "buffer" : 0,
            "byteLength" : 21888,
            "byteOffset" : 4749144
        },
        {
            "buffer" : 0,
            "byteLength" : 11616,
            "byteOffset" : 4771032
        },
        {
            "buffer" : 0,
            "byteLength" : 1908,
            "byteOffset" : 4782648
        },
        {
            "buffer" : 0,
            "byteLength" : 1908,
            "byteOffset" : 4784556
        },
        {
            "buffer" : 0,
            "byteLength" : 1272,
            "byteOffset" : 4786464
        },
        {
            "buffer" : 0,
            "byteLength" : 834,
            "byteOffset" : 4787736
        },
        {
            "buffer" : 0,
            "byteLength" : 30660,
            "byteOffset" : 4788572
        },
        {
            "buffer" : 0,
            "byteLength" : 30660,
            "byteOffset" : 4819232
        },
        {
            "buffer" : 0,
            "byteLength" : 20440,
            "byteOffset" : 4849892
        },
        {
            "buffer" : 0,
            "byteLength" : 14064,
            "byteOffset" : 4870332
        }
    ],
    "samplers" : [
        {
            "magFilter" : 9729,
            "minFilter" : 9987
        }
    ],
    "buffers" : [
        {
            "byteLength" : 4884396,
            "uri" : "ziche.bin"
        }
    ]
}
