{
    "asset" : {
        "generator" : "Khronos glTF Blender I/O v1.8.19",
        "version" : "2.0"
    },
    "scene" : 0,
    "scenes" : [
        {
            "name" : "Scene",
            "nodes" : [
                0
            ]
        }
    ],
    "nodes" : [
        {
            "mesh" : 0,
            "name" : "Wheel_RF_Tire_01.001_Wheel_RR_Tire_old.005",
            "rotation" : [
                0.7071068286895752,
                0,
                0,
                0.7071067094802856
            ]
        }
    ],
    "materials" : [
        {
            "doubleSided" : true,
            "name" : "\u6750\u8d28.001",
            "pbrMetallicRoughness" : {
                "baseColorTexture" : {
                    "index" : 0
                },
                "metallicFactor" : 0.7213119864463806,
                "roughnessFactor" : 0.8524590730667114
            }
        }
    ],
    "meshes" : [
        {
            "name" : "Wheel_RF_Tire_01.001_Wheel_RR_Tire_old.005",
            "primitives" : [
                {
                    "attributes" : {
                        "POSITION" : 0,
                        "NORMAL" : 1,
                        "TEXCOORD_0" : 2
                    },
                    "indices" : 3,
                    "material" : 0
                }
            ]
        }
    ],
    "textures" : [
        {
            "sampler" : 0,
            "source" : 0
        }
    ],
    "images" : [
        {
            "mimeType" : "image/png",
            "name" : "car",
            "uri" : "car.png"
        }
    ],
    "accessors" : [
        {
            "bufferView" : 0,
            "componentType" : 5126,
            "count" : 33694,
            "max" : [
                2.4260239601135254,
                0.028931999579072,
                1.1492749452590942
            ],
            "min" : [
                -2.531848907470703,
                -1.5270709991455078,
                -1.108044981956482
            ],
            "type" : "VEC3"
        },
        {
            "bufferView" : 1,
            "componentType" : 5126,
            "count" : 33694,
            "type" : "VEC3"
        },
        {
            "bufferView" : 2,
            "componentType" : 5126,
            "count" : 33694,
            "type" : "VEC2"
        },
        {
            "bufferView" : 3,
            "componentType" : 5123,
            "count" : 111087,
            "type" : "SCALAR"
        }
    ],
    "bufferViews" : [
        {
            "buffer" : 0,
            "byteLength" : 404328,
            "byteOffset" : 0
        },
        {
            "buffer" : 0,
            "byteLength" : 404328,
            "byteOffset" : 404328
        },
        {
            "buffer" : 0,
            "byteLength" : 269552,
            "byteOffset" : 808656
        },
        {
            "buffer" : 0,
            "byteLength" : 222174,
            "byteOffset" : 1078208
        }
    ],
    "samplers" : [
        {
            "magFilter" : 9729,
            "minFilter" : 9987
        }
    ],
    "buffers" : [
        {
            "byteLength" : 1300384,
            "uri" : "car08.bin"
        }
    ]
}
