{
    "asset" : {
        "generator" : "Khronos glTF Blender I/O v1.8.19",
        "version" : "2.0"
    },
    "scene" : 0,
    "scenes" : [
        {
            "name" : "Scene",
            "nodes" : [
                4
            ]
        }
    ],
    "nodes" : [
        {
            "name" : "Bone.002",
            "rotation" : [
                0.0036318900529295206,
                -8.035232987327994e-19,
                -8.035232470340111e-19,
                0.9999935030937195
            ],
            "scale" : [
                1,
                1,
                0.9999999403953552
            ],
            "translation" : [
                7.270142102516845e-26,
                1.2280876636505127,
                -4.656612873077393e-10
            ]
        },
        {
            "children" : [
                0
            ],
            "name" : "Bone.001",
            "rotation" : [
                -0.0036319114733487368,
                8.035230402388579e-19,
                8.035230919376462e-19,
                0.9999934434890747
            ],
            "scale" : [
                1,
                1.0000001192092896,
                1.0000001192092896
            ],
            "translation" : [
                0,
                1,
                0
            ]
        },
        {
            "children" : [
                1
            ],
            "name" : "Bone",
            "translation" : [
                -1.8421941815667165e-22,
                -1.7276427745819092,
                7.551766145752481e-08
            ]
        },
        {
            "mesh" : 0,
            "skin" : 0, 
            "name" : "Cube"
          
        },
        {
            "children" : [
                3,
                2
            ],
            "name" : "\u9aa8\u67b6",
            "rotation" : [
                0.7071068286895752,
                0,
                0,
                0.7071068286895752
            ],
            "scale" : [
                1.6551074981689453,
                1.6551074981689453,
                1.6551074981689453
            ]
        }
    ],
    "animations" : [
        {
            "channels" : [
                {
                    "sampler" : 0,
                    "target" : {
                        "node" : 2,
                        "path" : "rotation"
                    }
                },
                {
                    "sampler" : 1,
                    "target" : {
                        "node" : 1,
                        "path" : "rotation"
                    }
                },
                {
                    "sampler" : 2,
                    "target" : {
                        "node" : 0,
                        "path" : "rotation"
                    }
                }
            ],
            "name" : "test_animation",
            "samplers" : [
                {
                    "input" : 7,
                    "interpolation" : "LINEAR",
                    "output" : 8
                },
                {
                    "input" : 7,
                    "interpolation" : "LINEAR",
                    "output" : 9
                },
                {
                    "input" : 7,
                    "interpolation" : "LINEAR",
                    "output" : 10
                }
            ]
        }
    ],
    "materials" : [
        {
            "doubleSided" : true,
            "name" : "Material",
            "pbrMetallicRoughness" : {
                "baseColorTexture" : {
                    "index" : 0
                },
                "metallicFactor" : 0,
                "roughnessFactor" : 0.4000000059604645
            }
        }
    ],
    "meshes" : [
        {
            "name" : "Cube",
            "primitives" : [
                {
                    "attributes" : {
                        "POSITION" : 0,
                        "NORMAL" : 1,
                        "TEXCOORD_0" : 2,
                        "JOINTS_0" : 3,
                        "WEIGHTS_0" : 4
                    },
                    "indices" : 5,
                    "material" : 0
                }
            ]
        }
    ],
    "textures" : [
        {
            "sampler" : 0,
            "source" : 0
        }
    ],
    "images" : [
        {
            "mimeType" : "image/png",
            "name" : "park_no_available_horizontal",
            "uri" : "blue.png"
        }
    ],
    "skins" : [
        {
            "inverseBindMatrices" : 6,
            "joints" : [
                2,
                1,
                0
            ],
            "name" : "\u9aa8\u67b6"
        }
    ],
    "accessors" : [
        {
            "bufferView" : 0,
            "componentType" : 5126,
            "count" : 786,
            "max" : [
                0.30144625902175903,
                0.2300560027360916,
                3.0330042839050293
            ],
            "min" : [
                -0.30144625902175903,
                -0.2300560027360916,
                -3.0330042839050293
            ],
            "type" : "VEC3"
        },
        {
            "bufferView" : 1,
            "componentType" : 5126,
            "count" : 786,
            "type" : "VEC3"
        },
        {
            "bufferView" : 2,
            "componentType" : 5126,
            "count" : 786,
            "type" : "VEC2"
        },
        {
            "bufferView" : 3,
            "componentType" : 5121,
            "count" : 786,
            "type" : "VEC4"
        },
        {
            "bufferView" : 4,
            "componentType" : 5126,
            "count" : 786,
            "type" : "VEC4"
        },
        {
            "bufferView" : 5,
            "componentType" : 5123,
            "count" : 3696,
            "type" : "SCALAR"
        },
        {
            "bufferView" : 6,
            "componentType" : 5126,
            "count" : 3,
            "type" : "MAT4"
        },
        {
            "bufferView" : 7,
            "componentType" : 5126,
            "count" : 20,
            "max" : [
                0.8333333333333334
            ],
            "min" : [
                0.041666666666666664
            ],
            "type" : "SCALAR"
        },
        {
            "bufferView" : 8,
            "componentType" : 5126,
            "count" : 20,
            "type" : "VEC4"
        },
        {
            "bufferView" : 9,
            "componentType" : 5126,
            "count" : 20,
            "type" : "VEC4"
        },
        {
            "bufferView" : 10,
            "componentType" : 5126,
            "count" : 20,
            "type" : "VEC4"
        }
    ],
    "bufferViews" : [
        {
            "buffer" : 0,
            "byteLength" : 9432,
            "byteOffset" : 0
        },
        {
            "buffer" : 0,
            "byteLength" : 9432,
            "byteOffset" : 9432
        },
        {
            "buffer" : 0,
            "byteLength" : 6288,
            "byteOffset" : 18864
        },
        {
            "buffer" : 0,
            "byteLength" : 3144,
            "byteOffset" : 25152
        },
        {
            "buffer" : 0,
            "byteLength" : 12576,
            "byteOffset" : 28296
        },
        {
            "buffer" : 0,
            "byteLength" : 7392,
            "byteOffset" : 40872
        },
        {
            "buffer" : 0,
            "byteLength" : 192,
            "byteOffset" : 48264
        },
        {
            "buffer" : 0,
            "byteLength" : 80,
            "byteOffset" : 48456
        },
        {
            "buffer" : 0,
            "byteLength" : 320,
            "byteOffset" : 48536
        },
        {
            "buffer" : 0,
            "byteLength" : 320,
            "byteOffset" : 48856
        },
        {
            "buffer" : 0,
            "byteLength" : 320,
            "byteOffset" : 49176
        }
    ],
    "samplers" : [
        {
            "magFilter" : 9729,
            "minFilter" : 9987
        }
    ],
    "buffers" : [
        {
            "byteLength" : 49496,
            "uri" : "21.bin"
        }
    ]
}
